<svg width="203" height="29" viewBox="0 0 203 29" fill="none" xmlns="http://www.w3.org/2000/svg">
<path d="M188.285 22.924H192.373C192.429 23.4467 192.579 23.8853 192.821 24.24C193.083 24.5947 193.428 24.856 193.857 25.024C194.287 25.2107 194.772 25.304 195.313 25.304C195.911 25.304 196.452 25.164 196.937 24.884C197.423 24.6227 197.805 24.2213 198.085 23.68C198.384 23.1573 198.533 22.504 198.533 21.72V9.12H202.593V21.72C202.593 23.3627 202.267 24.6973 201.613 25.724C200.979 26.7507 200.129 27.4973 199.065 27.964C198.001 28.4493 196.807 28.692 195.481 28.692C193.895 28.692 192.579 28.4493 191.533 27.964C190.507 27.4787 189.732 26.7973 189.209 25.92C188.687 25.0613 188.379 24.0627 188.285 22.924ZM188.005 15.392C188.005 13.936 188.295 12.7227 188.873 11.752C189.471 10.7813 190.236 10.0533 191.169 9.568C192.103 9.08266 193.092 8.84 194.137 8.84C195.22 8.84 196.172 9.10133 196.993 9.62399C197.833 10.128 198.496 10.8653 198.981 11.836C199.467 12.8067 199.709 13.992 199.709 15.392C199.709 16.7733 199.467 17.9587 198.981 18.948C198.496 19.9187 197.833 20.6653 196.993 21.188C196.172 21.692 195.22 21.944 194.137 21.944C193.092 21.944 192.103 21.7013 191.169 21.216C190.236 20.712 189.471 19.9747 188.873 19.004C188.295 18.0333 188.005 16.8293 188.005 15.392ZM192.457 15.392C192.457 16.0453 192.597 16.6147 192.877 17.1C193.157 17.5667 193.531 17.9213 193.997 18.164C194.464 18.4067 194.977 18.528 195.537 18.528C196.023 18.528 196.489 18.416 196.937 18.192C197.404 17.9493 197.787 17.5947 198.085 17.128C198.384 16.6613 198.533 16.0827 198.533 15.392C198.533 14.8693 198.44 14.412 198.253 14.02C198.085 13.628 197.852 13.3013 197.553 13.04C197.273 12.7787 196.956 12.5827 196.601 12.452C196.247 12.3213 195.892 12.256 195.537 12.256C194.977 12.256 194.464 12.3773 193.997 12.62C193.531 12.8627 193.157 13.2173 192.877 13.684C192.597 14.1507 192.457 14.72 192.457 15.392Z" fill="black"/>
<path d="M176.944 17.968C176.944 18.304 177.028 18.5933 177.196 18.836C177.364 19.06 177.588 19.2373 177.868 19.368C178.148 19.48 178.456 19.536 178.792 19.536C179.277 19.536 179.725 19.4333 180.136 19.228C180.546 19.0227 180.882 18.7147 181.144 18.304C181.405 17.8933 181.536 17.3893 181.536 16.792L181.984 18.472C181.984 19.2933 181.76 19.9933 181.312 20.572C180.864 21.132 180.285 21.5613 179.576 21.86C178.866 22.14 178.101 22.28 177.28 22.28C176.458 22.28 175.693 22.1307 174.984 21.832C174.293 21.5147 173.733 21.048 173.304 20.432C172.893 19.816 172.688 19.0693 172.688 18.192C172.688 16.96 173.126 15.9893 174.004 15.28C174.881 14.552 176.122 14.188 177.728 14.188C178.512 14.188 179.212 14.2627 179.828 14.412C180.462 14.5613 181.004 14.748 181.452 14.972C181.9 15.196 182.236 15.4293 182.46 15.672V17.548C182.012 17.212 181.489 16.96 180.892 16.792C180.313 16.6053 179.697 16.512 179.044 16.512C178.54 16.512 178.138 16.568 177.84 16.68C177.541 16.792 177.317 16.96 177.168 17.184C177.018 17.3893 176.944 17.6507 176.944 17.968ZM175.068 13.068L173.64 10.24C174.368 9.88533 175.245 9.54933 176.272 9.232C177.298 8.91466 178.418 8.756 179.632 8.756C180.77 8.756 181.788 8.924 182.684 9.26C183.58 9.57733 184.289 10.044 184.812 10.66C185.334 11.276 185.596 12.032 185.596 12.928V22H181.536V13.88C181.536 13.5627 181.48 13.292 181.368 13.068C181.274 12.8253 181.125 12.62 180.92 12.452C180.714 12.284 180.453 12.1627 180.136 12.088C179.837 12.0133 179.492 11.976 179.1 11.976C178.521 11.976 177.952 12.0413 177.392 12.172C176.85 12.3027 176.374 12.4613 175.964 12.648C175.553 12.816 175.254 12.956 175.068 13.068Z" fill="black"/>
<path d="M154.19 12.004L153.014 22H148.03L151.194 1.42L159.538 13.376L167.91 1.42L171.074 22H166.09L164.914 12.004L159.538 20.18L154.19 12.004Z" fill="black"/>
<path d="M132.602 14.16C132.602 13.3947 132.453 12.8067 132.154 12.396C131.874 11.9853 131.398 11.78 130.726 11.78C130.278 11.78 129.886 11.8733 129.55 12.06C129.214 12.2467 128.953 12.5173 128.766 12.872C128.579 13.2267 128.486 13.656 128.486 14.16V22H124.23V9.12H128.486V11.052C128.859 10.3427 129.363 9.792 129.998 9.4C130.651 9.008 131.454 8.812 132.406 8.812C134.011 8.812 135.178 9.24133 135.906 10.1C136.634 10.9587 136.998 12.1627 136.998 13.712V22H132.602V14.16Z" fill="black"/>
<path d="M101.081 9.12H105.505L108.193 15.728L111.861 8.14L115.669 15.728L118.357 9.12H122.781L116.145 22.812L111.889 15.14L107.717 22.812L101.081 9.12Z" fill="black"/>
<path d="M86.0952 15.56C86.0952 14.1973 86.4125 13.012 87.0472 12.004C87.6819 10.996 88.5592 10.212 89.6792 9.652C90.7992 9.092 92.0592 8.812 93.4592 8.812C94.8592 8.812 96.1099 9.092 97.2112 9.652C98.3312 10.212 99.2085 10.996 99.8432 12.004C100.497 13.012 100.823 14.1973 100.823 15.56C100.823 16.904 100.497 18.08 99.8432 19.088C99.2085 20.096 98.3312 20.88 97.2112 21.44C96.1099 22 94.8592 22.28 93.4592 22.28C92.0592 22.28 90.7992 22 89.6792 21.44C88.5592 20.88 87.6819 20.096 87.0472 19.088C86.4125 18.08 86.0952 16.904 86.0952 15.56ZM90.4352 15.56C90.4352 16.232 90.5752 16.8107 90.8552 17.296C91.1352 17.7627 91.4992 18.1267 91.9472 18.388C92.3952 18.6493 92.8992 18.78 93.4592 18.78C94.0005 18.78 94.4952 18.6493 94.9432 18.388C95.4099 18.1267 95.7739 17.7627 96.0352 17.296C96.3152 16.8107 96.4552 16.232 96.4552 15.56C96.4552 14.888 96.3152 14.3093 96.0352 13.824C95.7739 13.3387 95.4099 12.9653 94.9432 12.704C94.4952 12.4427 94.0005 12.312 93.4592 12.312C92.8992 12.312 92.3952 12.4427 91.9472 12.704C91.4992 12.9653 91.1352 13.3387 90.8552 13.824C90.5752 14.3093 90.4352 14.888 90.4352 15.56Z" fill="black"/>
<path d="M79.342 0.160004H83.57V22H79.342V0.160004ZM68.814 15.56C68.814 14.104 69.1033 12.8813 69.682 11.892C70.2793 10.9027 71.0446 10.1467 71.978 9.624C72.9113 9.10134 73.9006 8.84 74.946 8.84C76.0286 8.84 76.9806 9.11067 77.802 9.65201C78.642 10.1933 79.3046 10.968 79.79 11.976C80.2753 12.9653 80.518 14.16 80.518 15.56C80.518 16.9413 80.2753 18.136 79.79 19.144C79.3046 20.152 78.642 20.9267 77.802 21.468C76.9806 22.0093 76.0286 22.28 74.946 22.28C73.9006 22.28 72.9113 22.0187 71.978 21.496C71.0446 20.9733 70.2793 20.2173 69.682 19.228C69.1033 18.22 68.814 16.9973 68.814 15.56ZM73.266 15.56C73.266 16.232 73.406 16.82 73.686 17.324C73.966 17.8093 74.3393 18.192 74.806 18.472C75.2726 18.7333 75.786 18.864 76.346 18.864C76.8313 18.864 77.298 18.7333 77.746 18.472C78.2126 18.2107 78.5953 17.8373 78.894 17.352C79.1926 16.848 79.342 16.2507 79.342 15.56C79.342 14.8693 79.1926 14.2813 78.894 13.796C78.5953 13.292 78.2126 12.9093 77.746 12.648C77.298 12.3867 76.8313 12.256 76.346 12.256C75.786 12.256 75.2726 12.396 74.806 12.676C74.3393 12.9373 73.966 13.32 73.686 13.824C73.406 14.3093 73.266 14.888 73.266 15.56Z" fill="black"/>
<path d="M56.4887 28.16H52.2607V9.12H56.4887V28.16ZM67.0167 15.56C67.0167 17.0533 66.718 18.3133 66.1207 19.34C65.542 20.3667 64.786 21.1413 63.8527 21.664C62.938 22.1867 61.9487 22.448 60.8847 22.448C59.7647 22.448 58.794 22.168 57.9727 21.608C57.17 21.0293 56.554 20.2267 56.1247 19.2C55.6954 18.1547 55.4807 16.9413 55.4807 15.56C55.4807 14.16 55.6954 12.9467 56.1247 11.92C56.554 10.8933 57.17 10.1 57.9727 9.54C58.794 8.96133 59.7647 8.672 60.8847 8.672C61.9487 8.672 62.938 8.93333 63.8527 9.456C64.786 9.97866 65.542 10.7533 66.1207 11.78C66.718 12.788 67.0167 14.048 67.0167 15.56ZM62.5647 15.56C62.5647 14.888 62.4247 14.3187 62.1447 13.852C61.8647 13.3853 61.4914 13.0307 61.0247 12.788C60.558 12.5453 60.0447 12.424 59.4847 12.424C58.9994 12.424 58.5234 12.5453 58.0567 12.788C57.6087 13.012 57.2354 13.3573 56.9367 13.824C56.638 14.2907 56.4887 14.8693 56.4887 15.56C56.4887 16.2507 56.638 16.8293 56.9367 17.296C57.2354 17.7627 57.6087 18.1173 58.0567 18.36C58.5234 18.584 58.9994 18.696 59.4847 18.696C60.0447 18.696 60.558 18.5747 61.0247 18.332C61.4914 18.0893 61.8647 17.7347 62.1447 17.268C62.4247 16.8013 62.5647 16.232 62.5647 15.56Z" fill="black"/>
<path d="M42.7899 22.28C41.2966 22.28 39.9993 22.0093 38.8979 21.468C37.8153 20.908 36.9753 20.124 36.3779 19.116C35.7806 18.108 35.4819 16.9227 35.4819 15.56C35.4819 14.1787 35.7713 12.984 36.3499 11.976C36.9286 10.968 37.7593 10.1933 38.8419 9.652C39.9433 9.11066 41.2406 8.84 42.7339 8.84C44.2273 8.84 45.4873 9.10133 46.5139 9.62399C47.5406 10.128 48.3246 10.8653 48.8659 11.836C49.4073 12.8067 49.6779 13.9827 49.6779 15.364C49.6779 15.5693 49.6779 15.7747 49.6779 15.98C49.6779 16.1667 49.6593 16.3253 49.6219 16.456H37.8619V14.104H45.8139L44.8059 15.392C44.8993 15.2613 44.9739 15.1027 45.0299 14.916C45.1046 14.7107 45.1419 14.5427 45.1419 14.412C45.1419 13.852 45.0393 13.3667 44.8339 12.956C44.6286 12.5453 44.3393 12.228 43.9659 12.004C43.5926 11.78 43.1539 11.668 42.6499 11.668C42.0153 11.668 41.4833 11.808 41.0539 12.088C40.6246 12.368 40.2979 12.7973 40.0739 13.376C39.8686 13.936 39.7566 14.6453 39.7379 15.504C39.7379 16.288 39.8499 16.96 40.0739 17.52C40.2979 18.08 40.6339 18.5093 41.0819 18.808C41.5299 19.088 42.0806 19.228 42.7339 19.228C43.4806 19.228 44.1153 19.088 44.6379 18.808C45.1793 18.528 45.6086 18.108 45.9259 17.548L49.7059 18.472C49.0339 19.7413 48.1193 20.6933 46.9619 21.328C45.8233 21.9627 44.4326 22.28 42.7899 22.28Z" fill="black"/>
<path d="M26.7392 22.28C25.2458 22.28 23.9485 22.0093 22.8472 21.468C21.7645 20.908 20.9245 20.124 20.3272 19.116C19.7298 18.108 19.4312 16.9227 19.4312 15.56C19.4312 14.1787 19.7205 12.984 20.2992 11.976C20.8778 10.968 21.7085 10.1933 22.7912 9.652C23.8925 9.11066 25.1898 8.84 26.6832 8.84C28.1765 8.84 29.4365 9.10133 30.4632 9.62399C31.4898 10.128 32.2738 10.8653 32.8152 11.836C33.3565 12.8067 33.6272 13.9827 33.6272 15.364C33.6272 15.5693 33.6272 15.7747 33.6272 15.98C33.6272 16.1667 33.6085 16.3253 33.5712 16.456H21.8112V14.104H29.7632L28.7552 15.392C28.8485 15.2613 28.9232 15.1027 28.9792 14.916C29.0538 14.7107 29.0912 14.5427 29.0912 14.412C29.0912 13.852 28.9885 13.3667 28.7832 12.956C28.5778 12.5453 28.2885 12.228 27.9152 12.004C27.5418 11.78 27.1032 11.668 26.5992 11.668C25.9645 11.668 25.4325 11.808 25.0032 12.088C24.5738 12.368 24.2472 12.7973 24.0232 13.376C23.8178 13.936 23.7058 14.6453 23.6872 15.504C23.6872 16.288 23.7992 16.96 24.0232 17.52C24.2472 18.08 24.5832 18.5093 25.0312 18.808C25.4792 19.088 26.0298 19.228 26.6832 19.228C27.4298 19.228 28.0645 19.088 28.5872 18.808C29.1285 18.528 29.5578 18.108 29.8752 17.548L33.6552 18.472C32.9832 19.7413 32.0685 20.6933 30.9112 21.328C29.7725 21.9627 28.3818 22.28 26.7392 22.28Z" fill="black"/>
<path d="M0.0720062 2.39999H4.94401V22H0.0720062V2.39999ZM7.07201 22H3.20801V17.8H6.90401C7.65067 17.8 8.36934 17.7067 9.06001 17.52C9.76934 17.3333 10.3853 17.0253 10.908 16.596C11.4493 16.1667 11.8787 15.5973 12.196 14.888C12.5133 14.16 12.672 13.264 12.672 12.2C12.672 11.136 12.5133 10.2493 12.196 9.53999C11.8787 8.81199 11.4493 8.23333 10.908 7.80399C10.3853 7.37466 9.76934 7.06666 9.06001 6.87999C8.36934 6.69333 7.65067 6.59999 6.90401 6.59999H3.20801V2.39999H7.07201C9.21867 2.39999 11.076 2.80133 12.644 3.604C14.212 4.40666 15.4253 5.53599 16.284 6.99199C17.1427 8.44799 17.572 10.184 17.572 12.2C17.572 14.1973 17.1427 15.9333 16.284 17.408C15.4253 18.864 14.212 19.9933 12.644 20.796C11.076 21.5987 9.21867 22 7.07201 22Z" fill="black"/>
</svg>
